<svg xmlns="http://www.w3.org/2000/svg" viewBox="0 0 160 120" fill="none">
  <defs>
    <linearGradient id="htlsBubble" x1="0" y1="0" x2="1" y2="1">
      <stop offset="0%" stop-color="#f87171"/>
      <stop offset="100%" stop-color="#dc2626"/>
    </linearGradient>
    <filter id="htlsGlow" x="-40%" y="-40%" width="180%" height="180%">
      <feGaussianBlur stdDeviation="3" result="b"/>
      <feMerge>
        <feMergeNode in="b"/>
        <feMergeNode in="SourceGraphic"/>
      </feMerge>
    </filter>
  </defs>
  <rect width="160" height="120" rx="16" fill="#0f172a" fill-opacity="0.92"/>
  <path d="M80 18 28 56v44h104V56L80 18Z" stroke="#D4AF37" stroke-width="2.5" fill="#1e293b"/>
  <rect x="68" y="68" width="24" height="28" rx="2" fill="#fef9c3"/>
  <path d="M118 28c12 0 22 9 22 20 0 6-3 11-7 14l3 12-11-7c-2 0-4 1-7 1-12 0-22-9-22-20s10-20 22-20Z" fill="url(#htlsBubble)" filter="url(#htlsGlow)"/>
  <path d="M108 42h20M108 50h14" stroke="#fff" stroke-width="2.2" stroke-linecap="round" opacity="0.95"/>
</svg>
